<svg xmlns="http://www.w3.org/2000/svg" width="20" height="20" viewBox="0 0 20 20" fill="none">
  <path d="M10 1L2 5v5c0 4.5 3.4 8.7 8 10 4.6-1.3 8-5.5 8-10V5l-8-4z" fill="#1C2854"/>
  <path d="M10 2.5L3.5 5.7V10c0 3.8 2.8 7.3 6.5 8.5 3.7-1.2 6.5-4.7 6.5-8.5V5.7L10 2.5z" fill="#E5BC44"/>
  <path d="M10 4L5 6.5V10c0 3 2.2 5.8 5 6.8 2.8-1 5-3.8 5-6.8V6.5L10 4z" fill="#1C2854"/>
  <text x="10" y="12.5" text-anchor="middle" font-family="serif" font-size="6" font-weight="bold" fill="#E5BC44">PR</text>
</svg>
